<svg width="16" height="16" viewBox="0 0 16 16" fill="none" xmlns="http://www.w3.org/2000/svg">
<path d="M5.99984 9.33398L4.6665 10.6665" stroke="#4E4E4E" stroke-linecap="round" stroke-linejoin="round"/>
<path d="M5.99984 9.33398L4.6665 10.6665" stroke="#4E4E4E" stroke-linecap="round" stroke-linejoin="round"/>
<path d="M4.66699 9.33301L5.99953 10.6663" stroke="#4E4E4E" stroke-linecap="round" stroke-linejoin="round"/>
<path d="M9.3335 10.0003V11.3337C9.3335 12.4382 8.43807 13.3337 7.3335 13.3337H5.42195L3.87728 14.5915C3.77751 14.6727 3.63991 14.6893 3.52372 14.6341C3.40753 14.5788 3.33349 14.4616 3.3335 14.333V13.3337C2.22893 13.3337 1.3335 12.4382 1.3335 11.3337V8.66699C1.3335 7.56242 2.22893 6.66699 3.3335 6.66699H4.66683" stroke="#4E4E4E" stroke-linecap="round" stroke-linejoin="round"/>
<path d="M9.8335 4.66634L10.5002 5.33301L11.5002 4.33301" stroke="#4E4E4E" stroke-linecap="round" stroke-linejoin="round"/>
<path fill-rule="evenodd" clip-rule="evenodd" d="M14.6665 3.33301V5.99967C14.6665 7.10424 13.7711 7.99967 12.6665 7.99967V7.99967V8.99904C12.6665 9.1277 12.5925 9.24487 12.4763 9.3001C12.3601 9.35533 12.2224 9.33876 12.1227 9.25751L10.5781 7.99967H8.6665C7.56193 7.99967 6.6665 7.10424 6.6665 5.99967V3.33301C6.6665 2.22844 7.56193 1.33301 8.6665 1.33301H12.6665C13.7711 1.33301 14.6665 2.22844 14.6665 3.33301Z" stroke="#4E4E4E" stroke-linecap="round" stroke-linejoin="round"/>
</svg>
