<svg width="32" height="32" viewBox="0 0 32 32" fill="none" xmlns="http://www.w3.org/2000/svg">
<g clip-path="url(#clip0_1932_54701)">
<path d="M7.74456 26.3029V15.6378L4.11748 12.6118L0.86499 10.9326V24.4208C0.86499 25.4622 1.79024 26.3029 2.92891 26.3029H7.74456Z" fill="#4285F4"/>
<path d="M24.2554 26.3028H29.071C30.2131 26.3028 31.1349 25.459 31.1349 24.4207V10.9326L27.451 12.8559L24.2554 15.6377V26.3028Z" fill="#34A853"/>
<path d="M7.74452 15.6375L7.25098 11.4703L7.74452 7.48193L16 13.1282L24.2554 7.48193L24.8076 11.255L24.2554 15.6375L16 21.2838L7.74452 15.6375Z" fill="#EA4335"/>
<path d="M24.2554 7.4821V15.6377L31.1349 10.9326V8.42311C31.1349 6.09566 28.2215 4.76885 26.1818 6.16467L24.2554 7.4821Z" fill="#FBBC04"/>
<path d="M0.86499 10.9326L4.02903 13.0967L7.74456 15.6378V7.48215L5.81816 6.16472C3.77493 4.76879 0.86499 6.09571 0.86499 8.42305V10.9325V10.9326Z" fill="#C5221F"/>
</g>
<defs>
<clipPath id="clip0_1932_54701">
<rect width="30.27" height="20.8106" fill="white" transform="translate(0.86499 5.59473)"/>
</clipPath>
</defs>
</svg>
