<svg width="16" height="16" viewBox="0 0 16 16" fill="none" xmlns="http://www.w3.org/2000/svg">
<path d="M6.60915 6.78506C7.12985 7.30576 7.12985 8.14998 6.60915 8.67068C6.08845 9.19138 5.24423 9.19138 4.72353 8.67068C4.20283 8.14998 4.20283 7.30576 4.72353 6.78506C5.24423 6.26436 6.08845 6.26436 6.60915 6.78506" stroke="#4E4E4E" stroke-linecap="round" stroke-linejoin="round"/>
<path d="M9.99951 7.33333H12.6662" stroke="#4E4E4E" stroke-linecap="round" stroke-linejoin="round"/>
<path d="M11.9995 9.66634H9.99951" stroke="#4E4E4E" stroke-linecap="round" stroke-linejoin="round"/>
<path d="M7.99967 12.0272C7.88634 11.7425 7.71101 11.4865 7.48567 11.2778V11.2778C7.10501 10.9252 6.60501 10.7285 6.08567 10.7285H5.24701C4.72767 10.7285 4.22767 10.9245 3.84701 11.2778V11.2778C3.62167 11.4858 3.44634 11.7418 3.33301 12.0272" stroke="#4E4E4E" stroke-linecap="round" stroke-linejoin="round"/>
<path fill-rule="evenodd" clip-rule="evenodd" d="M8.6665 4.66634H7.33317C6.96517 4.66634 6.6665 4.36767 6.6665 3.99967V1.99967C6.6665 1.63167 6.96517 1.33301 7.33317 1.33301H8.6665C9.0345 1.33301 9.33317 1.63167 9.33317 1.99967V3.99967C9.33317 4.36767 9.0345 4.66634 8.6665 4.66634Z" stroke="#4E4E4E" stroke-linecap="round" stroke-linejoin="round"/>
<path d="M6.66634 3.33301H2.69367C1.94234 3.33301 1.33301 3.94234 1.33301 4.69367V12.6663C1.33301 13.403 1.92967 13.9997 2.66634 13.9997H13.333C14.0697 13.9997 14.6663 13.403 14.6663 12.6663V4.66634C14.6663 3.92967 14.0697 3.33301 13.333 3.33301H9.33301" stroke="#4E4E4E" stroke-linecap="round" stroke-linejoin="round"/>
</svg>
