<svg width="16" height="16" viewBox="0 0 16 16" fill="none" xmlns="http://www.w3.org/2000/svg">
<path d="M7.3336 4.66485H2.66499C2.2967 4.66472 1.99818 4.36619 1.99805 3.9979V2.66401C1.99818 2.29573 2.2967 1.9972 2.66499 1.99707H7.3336" stroke="#4E4E4E" stroke-linecap="round" stroke-linejoin="round"/>
<path fill-rule="evenodd" clip-rule="evenodd" d="M3.49867 9.66685H2.49826C2.22204 9.66675 1.99815 9.44286 1.99805 9.16664V8.16622C1.99815 7.89001 2.22204 7.66611 2.49826 7.66602H3.49867C3.77489 7.66611 3.99878 7.89001 3.99888 8.16622V9.16664C3.99878 9.44286 3.77489 9.66675 3.49867 9.66685Z" stroke="#4E4E4E" stroke-linecap="round" stroke-linejoin="round"/>
<path d="M6.14795 8.66648H14.0032" stroke="#4E4E4E" stroke-linecap="round" stroke-linejoin="round"/>
<path fill-rule="evenodd" clip-rule="evenodd" d="M3.49867 14.0018H2.49826C2.22204 14.0017 1.99815 13.7778 1.99805 13.5016V12.5012C1.99815 12.225 2.22204 12.0011 2.49826 12.001H3.49867C3.77489 12.0011 3.99878 12.225 3.99888 12.5012V13.5016C3.99878 13.7778 3.77489 14.0017 3.49867 14.0018Z" stroke="#4E4E4E" stroke-linecap="round" stroke-linejoin="round"/>
<path d="M6.14795 13.0014H14.0032" stroke="#4E4E4E" stroke-linecap="round" stroke-linejoin="round"/>
<circle cx="11.3353" cy="3.33091" r="2.00083" stroke="#4E4E4E" stroke-linecap="round" stroke-linejoin="round"/>
<path d="M14.0028 5.99844L12.7495 4.74512" stroke="#4E4E4E" stroke-linecap="round" stroke-linejoin="round"/>
</svg>
