<svg width="18" height="18" viewBox="0 0 18 18" fill="none" xmlns="http://www.w3.org/2000/svg">
<path d="M9.00051 5.99902C9.81896 5.99902 10.4825 6.66252 10.4825 7.48097C10.4825 8.29943 9.81896 8.96292 9.00051 8.96292C8.18205 8.96292 7.51855 8.29943 7.51855 7.48097C7.51864 6.66255 8.18208 5.99911 9.00051 5.99902" stroke="#4E4E4E" stroke-linecap="round" stroke-linejoin="round"/>
<path d="M11.6681 11.3343C11.5905 11.1392 11.4702 10.9639 11.3159 10.8215V10.8215C11.056 10.5799 10.7144 10.4455 10.3595 10.4453H7.64173C7.28669 10.4455 6.94484 10.5799 6.68467 10.8215V10.8215C6.53076 10.9642 6.41048 11.1394 6.33252 11.3343" stroke="#4E4E4E" stroke-linecap="round" stroke-linejoin="round"/>
<path d="M12.7731 5.22778C14.299 6.75374 14.7555 9.04866 13.9297 11.0424C13.1038 13.0362 11.1583 14.3362 9.00026 14.3362C6.84223 14.3362 4.89669 13.0362 4.07085 11.0424C3.24501 9.04866 3.7015 6.75374 5.22746 5.22778C7.31112 3.14412 10.6894 3.14412 12.7731 5.22778" stroke="#4E4E4E" stroke-linecap="round" stroke-linejoin="round"/>
<path d="M9.00046 15.0028V13.6689" stroke="#4E4E4E" stroke-linecap="round" stroke-linejoin="round"/>
<path d="M9.00046 2.99805V4.33194" stroke="#4E4E4E" stroke-linecap="round" stroke-linejoin="round"/>
<path d="M4.33194 9.00046H2.99805" stroke="#4E4E4E" stroke-linecap="round" stroke-linejoin="round"/>
<path d="M15.0028 9.00046H13.6689" stroke="#4E4E4E" stroke-linecap="round" stroke-linejoin="round"/>
</svg>
