<svg width="16" height="16" viewBox="0 0 16 16" fill="none" xmlns="http://www.w3.org/2000/svg">
<path d="M7.33333 10H4.66667C3.19391 10 2 11.1939 2 12.6667V13.3333" stroke="#4E4E4E" stroke-linecap="round" stroke-linejoin="round"/>
<circle cx="7.33317" cy="4.66667" r="2.66667" stroke="#4E4E4E" stroke-linecap="round" stroke-linejoin="round"/>
<path d="M14.6664 11C14.6664 12.2887 13.6217 13.3333 12.333 13.3333C12.1013 13.3301 11.8713 13.2919 11.6509 13.2201" stroke="#4E4E4E" stroke-linecap="round" stroke-linejoin="round"/>
<path d="M12.3335 8.66699C13.6222 8.66699 14.6668 9.71166 14.6668 11.0003" stroke="#4E4E4E" stroke-linecap="round" stroke-linejoin="round"/>
<path d="M10.1126 11.6805C10.0412 11.4607 10.0032 11.2314 10 11.0003C10 9.71166 11.0447 8.66699 12.3333 8.66699" stroke="#4E4E4E" stroke-linecap="round" stroke-linejoin="round"/>
<path d="M10.1124 11.6807L8.84802 12.947C8.73204 13.064 8.66682 13.2219 8.6665 13.3866V14.0453C8.66651 14.3887 8.9449 14.6671 9.28833 14.6671H9.94984C10.1149 14.6673 10.2732 14.6014 10.3894 14.4842L11.651 13.2206" stroke="#4E4E4E" stroke-linecap="round" stroke-linejoin="round"/>
<path d="M12.3667 11.0004C12.3666 11.0188 12.3517 11.0337 12.3333 11.0337C12.3149 11.0337 12.3 11.0187 12.3 11.0003C12.3 10.9819 12.3149 10.967 12.3333 10.967C12.3421 10.967 12.3506 10.9705 12.3569 10.9768C12.3632 10.983 12.3667 10.9915 12.3667 11.0004" stroke="#4E4E4E" stroke-linecap="round" stroke-linejoin="round"/>
</svg>
