<svg width="16" height="16" viewBox="0 0 16 16" fill="none" xmlns="http://www.w3.org/2000/svg">
<path fill-rule="evenodd" clip-rule="evenodd" d="M12.6668 11.3337H12.0002C11.6322 11.3337 11.3335 11.035 11.3335 10.667V7.33366C11.3335 6.96566 11.6322 6.66699 12.0002 6.66699H12.6668C13.4035 6.66699 14.0002 7.26366 14.0002 8.00033V10.0003C14.0002 10.737 13.4035 11.3337 12.6668 11.3337Z" stroke="#4E4E4E" stroke-linecap="round" stroke-linejoin="round"/>
<path fill-rule="evenodd" clip-rule="evenodd" d="M4 11.3337H3.33333C2.59667 11.3337 2 10.737 2 10.0003V8.00033C2 7.26366 2.59667 6.66699 3.33333 6.66699H4C4.368 6.66699 4.66667 6.96566 4.66667 7.33366V10.667C4.66667 11.035 4.368 11.3337 4 11.3337Z" stroke="#4E4E4E" stroke-linecap="round" stroke-linejoin="round"/>
<path d="M12.3332 6.66667V6.33333C12.3332 3.94 10.3932 2 7.99984 2V2C5.6065 2 3.6665 3.94 3.6665 6.33333V6.66667" stroke="#4E4E4E" stroke-linecap="round" stroke-linejoin="round"/>
<path fill-rule="evenodd" clip-rule="evenodd" d="M8.41667 14.1667H7.58333C7.12333 14.1667 6.75 13.7933 6.75 13.3333V13.3333C6.75 12.8733 7.12333 12.5 7.58333 12.5H8.41667C8.87667 12.5 9.25 12.8733 9.25 13.3333V13.3333C9.25 13.7933 8.87667 14.1667 8.41667 14.1667Z" stroke="#4E4E4E" stroke-linecap="round" stroke-linejoin="round"/>
<path d="M9.25 13.333H10.6667C11.4033 13.333 12 12.7363 12 11.9997V11.333" stroke="#4E4E4E" stroke-linecap="round" stroke-linejoin="round"/>
</svg>
